<svg version="1.0" xmlns="http://www.w3.org/2000/svg" width="134" height="145" viewBox="0 0 134 145"><path d="M32.6 123.2c-.8-1.3-.9-78.6-.1-79 .3-.2 3.5 2.8 7.1 6.7l6.4 6.9-.2 32.9-.3 32.8-6.2.3c-3.4.2-6.4-.1-6.7-.6m58.9-.1c-4.9-.6-5.2-.8-19.7-16.1L57 91.6v-9.4c0-5.1.3-9.2.8-9 1.7.7 48.2 48.7 48.2 49.7 0 1.2-5.6 1.2-14.5.2M97.2 98 72.8 73h8.1c4.8 0 9.6-.6 11.6-1.4 7-3 9.6-12.2 5.2-18.7C94 47.4 92.5 47 70.8 47c-22.5 0-20.7.7-30.9-11.1l-5.2-6.1 29.9.4c25.6.3 30.5.6 33.7 2.1 10.4 4.6 16.7 13.4 17.5 24.7.7 10.3-1.6 16-9.5 23.8l-6.4 6.3 1.7 2.7c1 1.5 6.4 9.4 12.1 17.5 5.7 8.2 10.3 15 10.3 15.3 0 2.2-6-3.2-26.8-24.6" fill="#fff"/></svg>